<?xml version="1.0" encoding="utf-8"?>
<!-- Generator: Adobe Illustrator 25.2.3, SVG Export Plug-In . SVG Version: 6.00 Build 0)  -->
<svg version="1.1" id="Layer_1" xmlns="http://www.w3.org/2000/svg" xmlns:xlink="http://www.w3.org/1999/xlink" x="0px" y="0px"
	 viewBox="0 0 1920 1080" enable-background="new 0 0 1920 1080" xml:space="preserve">
<path d="M793.9,553.2V605h-38.9v72.7h-64V605H551.8l-2.5-40l140.9-222.3h64.9v210.6H793.9z M691.1,553.2V428.7l-6.2,11l-72.7,113.5
	H691.1z"/>
<path d="M1061.7,607.4c-5,16.5-12.2,30.3-21.5,41.3c-9.4,11.2-20.8,19.6-34.3,25.3c-13.5,5.7-28.7,8.5-45.6,8.5
	c-16.7,0-31.8-2.8-45.3-8.5c-13.5-5.7-24.9-14.1-34.3-25.3c-9.5-11-16.8-24.8-22-41.3c-5.1-16.5-7.7-35.6-7.7-57.2v-80.1
	c0-21.6,2.5-40.7,7.6-57.2c5.1-16.5,12.3-30.3,21.9-41.5c9.4-11,20.7-19.4,34.2-25.1c13.4-5.7,28.5-8.5,45.2-8.5
	c16.9,0,32.1,2.8,45.6,8.5c13.5,5.7,25,14,34.5,25.1c9.4,11.2,16.6,25.1,21.6,41.5c5.1,16.5,7.6,35.6,7.6,57.2v80.1
	C1069.2,571.9,1066.7,590.9,1061.7,607.4z M1004.8,456.1c-0.3-12.6-1.7-23.4-4-32.3c-2.4-9-5.9-16.1-10.5-21.5
	c-3.5-4.3-7.9-7.5-13-9.6c-5.1-2.1-10.9-3.1-17.4-3.1c-7.2,0-13.5,1.3-19,4c-5.4,2.7-10,6.7-13.7,12.1c-4,5.7-6.9,13-8.9,22.1
	c-1.9,9.1-2.9,19.8-2.9,32.2v37.1c0,7.4,0,12.3,0,14.7c0,2.5,0,6.1,0,10.8L1004.8,456.1z M1004.8,521c0-5.1,0-8.8,0-11.2
	c0-2.4,0-5.8,0-10.2l-89.3,66.3c0.3,10.1,1.3,19.1,3.1,26.9c1.8,7.8,4.3,14.3,7.5,19.6c3.7,6.3,8.4,11,14,14
	c5.7,3.1,12.4,4.6,20.3,4.6c7.2,0,13.6-1.3,19.1-4c5.5-2.7,10.1-6.8,13.8-12.3c3.8-5.8,6.7-13.3,8.6-22.4c1.9-9.1,2.9-19.9,2.9-32.3
	V521z"/>
<path d="M1359.7,553.2V605h-38.9v72.7h-64V605h-139.2l-2.5-40l140.9-222.3h64.9v210.6H1359.7z M1256.8,553.2V428.7l-6.2,11
	l-72.7,113.5H1256.8z"/>
<path d="M1256.8,677.7"/>
</svg>
